#!OML:ASF F:\VICON\USERDATA\INSTALL\rory3\rory3.ASF
:FULLY-SPECIFIED
:DEGREES
71
root 0.47471250465949855 17.729970358194947 34.13129685999768 1.3804114414927349 3.8055615011484427 -0.6189921707826864
lfemur -8.942735659939348 -2.400938845459417 -20.485383485174086
ltibia 44.90686987873513
lfoot 18.832902374888327 -14.197686323977914
ltoes -3.965188560237728
rfemur -19.430017802928766 -0.9314592449669203 28.648323910438958
rtibia 35.260139340641224
rfoot -11.70804642743009 -3.751474704250155
rtoes 7.911771146447084
lowerback 11.980063245383851 -1.042510720095361 1.1631354839076673
upperback -1.0211251062651046 -1.2607871242760422 1.473233234692871
thorax -7.301537728023784 -0.5810791559030298 2.2197529117367294
lowerneck -16.80362592531264 -2.9792552891684885 -3.475000725947683
upperneck 18.17985632101936 -3.2341419697062106 1.8939773275472285
head 8.437126478756396 -1.5827805013231568 0.9820935641417088
lclavicle -1.6729444902463048e-15 -3.590299874975899e-15
lhumerus -42.49920039355412 -6.886282471941465 90.01788646946449
lradius 75.45930275569002
lwrist 20.778768832521443
lhand -32.1482160992472 11.237493377256985
lfingers 7.125019999999999
lthumb -5.026307675994149 41.70355660929821
rclavicle -1.679693075585695e-15 -3.595054892352365e-15
rhumerus -39.395717567537176 -4.849544155809499 -86.92663358779389
rradius 60.616122538313455
rwrist 2.304721526033979
rhand -18.070583673966556 28.10450893670134
rfingers 7.125019999999999
rthumb 7.794865734070835 -0.0479838913177503
72
root 0.4514582223248077 17.586782326383357 35.01955833851537 0.16916732805022405 0.5955291741110486 -1.1099766248630372
lfemur -10.181421424386416 -0.07782236938004417 -19.328192225339222
ltibia 47.1680645738904
lfoot 15.160552756508247 -11.845610337746084
ltoes -2.7778602421322525
rfemur -20.590695107892998 1.783097635166497 28.64186543860605
rtibia 41.98555832303504
rfoot -14.42134644041905 -4.666479215131655
rtoes 9.166671221599684
lowerback 12.932513411939478 -0.07821684056691897 1.0834948240895939
upperback -0.7238559206724643 -0.025601802363522608 1.4870821263178182
thorax -7.590851425048439 0.023395294132749433 2.172150718322772
lowerneck -16.690093477470235 -3.0645521326539593 -3.3967753612245493
upperneck 18.446062041845845 -3.359823756913725 1.7556077579052036
head 8.493681988617434 -1.6313823711779765 0.9216365994781148
lclavicle -1.6732495196094178e-15 -3.590516883548651e-15
lhumerus -42.49116392946581 -6.816388740773359 90.15268021299488
lradius 73.93951882203396
lwrist 20.949674334218084
lhand -32.38470379981546 11.301760560279604
lfingers 7.125019999999999
lthumb -5.061722373348617 41.83452325171646
rclavicle -1.6809655999236743e-15 -3.595954755141148e-15
rhumerus -38.48978587661506 -4.8281066296443225 -87.37152654489735
rradius 59.91658560703908
rwrist 2.5132551664281824
rhand -18.314051766107028 28.20272221308466
rfingers 7.125019999999999
rthumb 7.661218047106785 -0.23767136597390232
73
root 0.5155040982956021 17.51899434034845 36.662569945033994 -0.6337713288704232 0.6779004251033611 2.0621928080443013
lfemur -10.840343758453347 -0.5326737663955128 -22.101796968498252
ltibia 48.119875643297114
lfoot 11.959335824912197 -8.51266709976191
ltoes -0.37639035198146686
rfemur -21.49344897549878 0.019043162564741145 25.696288873540993
rtibia 49.50255401507179
rfoot -15.535191959965289 -5.283364558655315
rtoes 10.457248019070942
lowerback 12.792980512089953 0.07018974660263294 -1.1779803626782943
upperback -0.42836587303359197 -0.1626466667635944 0.6498006000033513
thorax -7.3897634349008605 -0.04313581164032232 2.5846553590620767
lowerneck -16.79384688865552 -3.1252536617005306 -3.301673363182503
upperneck 18.59113540135783 -3.5188948481480584 1.8712958527121089
head 8.49237641930892 -1.6893557018591518 0.9446800886785125
lclavicle -1.6711002566376589e-15 -3.588997559197972e-15
lhumerus -42.48863264480431 -6.6413089791587385 90.20961858093146
lradius 72.25911668942325
lwrist 21.292389275972702
lhand -32.42646279289705 12.03013728082997
lfingers 7.125019999999999
lthumb -5.522964796619165 42.43734015524288
rclavicle -1.6814877220053703e-15 -3.596323908368148e-15
rhumerus -37.502751795088756 -4.782556669644727 -87.74490587015426
rradius 59.04592180465083
rwrist 3.2159286334384296
rhand -18.461133908664188 27.97704315269072
rfingers 7.125019999999999
rthumb 7.5543236471766875 -0.6462865268263636
74
root 0.5263183380723225 17.40798490097182 38.193945223766065 -0.7691027279825489 0.5265526441175793 3.1127469481623837
lfemur -10.908896903540349 -0.7303244432298917 -22.583970005463954
ltibia 48.17105949262573
lfoot 8.670880709399412 -5.873621803323847
ltoes -2.8835215511934535
rfemur -24.238174751759956 -0.8552248424298079 24.73563672941334
rtibia 57.98336427471556
rfoot -14.874906938126077 -6.291473553788108
rtoes 10.743765765775073
lowerback 13.156324557654276 0.2530441502872903 -1.9146878939975802
upperback -0.3817260282281819 0.010391452742485652 0.34088925834329786
thorax -7.570916496294825 0.07593206450765116 2.8271903472762183
lowerneck -16.790344138173502 -3.1507895478276255 -3.1739710993497225
upperneck 18.523143368408174 -3.564386397538344 1.841794414218258
head 8.398899308585847 -1.7120063017941654 0.9021184146187997
lclavicle -1.674236365445075e-15 -3.5912143919218334e-15
lhumerus -42.415125018142035 -6.5926252151857385 90.24038457949668
lradius 70.43465142939682
lwrist 21.684402412809348
lhand -32.09614833610593 11.904628245956012
lfingers 7.125019999999999
lthumb -5.335291414168397 42.257811464356834
rclavicle -1.6801840812580163e-15 -3.595401982043056e-15
rhumerus -36.740246686134064 -5.391971198082264 -88.28536075673195
rradius 58.00475921403095
rwrist 3.832808700969892
rhand -18.44672125053298 27.702669498217126
rfingers 7.125019999999999
rthumb 7.472226339392587 -0.881823348659509
75
root 0.5084695567828839 17.275085666833835 38.95133478850293 -0.12565597613732704 1.1418947498618959 4.635780093477793
lfemur -10.81205315325904 -1.3393979050560005 -23.716559123869718
ltibia 47.837982916015434
lfoot 4.701654637446014 -4.070983065322292
ltoes -1.1327432681262737
rfemur -26.75456473562427 -1.4879131130484438 23.43523279598674
rtibia 65.28932945083707
rfoot -13.663164251679767 -7.391102454467138
rtoes 9.403624398977025
lowerback 12.914867554771085 0.2292307693389476 -2.6035184483501252
upperback -0.44128900047803377 -0.09763444543294186 0.047916437096634734
thorax -7.467352588177544 0.06920013903392336 3.249017972685637
lowerneck -17.022279525297904 -3.1224923334274086 -2.9226438128868173
upperneck 18.400952317274914 -3.6072735509362563 1.791739986343539
head 8.295217923943515 -1.7130538484662172 0.8180060898897805
lclavicle -1.6748107956112411e-15 -3.591613291136279e-15
lhumerus -41.99051509139154 -6.7049848147575455 90.27431430784138
lradius 68.59567735187306
lwrist 21.174707174774507
lhand -31.724775496226517 12.580485279419046
lfingers 7.125019999999999
lthumb -4.950313626711383 43.24729320499174
rclavicle -1.6816880584511318e-15 -3.596465457588978e-15
rhumerus -36.279914346505876 -6.064246327719558 -88.85428495552142
rradius 57.256446263952476
rwrist 2.9524111147317704
rhand -18.514595555189597 27.450429057368844
rfingers 7.125019999999999
rthumb 7.458892873222412 -1.131062655758741
76
root 0.5460119172325917 17.203019070244437 38.81303790350632 0.6208348318240281 1.4221549358672616 5.361506433825198
lfemur -10.401414162954875 -1.9308057273803028 -23.931731509540356
ltibia 47.152958525127204
lfoot 1.0783477483612953 -2.1385625763877494
ltoes -1.4334106783858171
rfemur -29.05817686841386 -1.2020539056118014 23.031967381615203
rtibia 69.99996317711798
rfoot -11.2568798041072 -8.424546960449002
rtoes 7.303768174670515
lowerback 12.935818709671786 0.20776103720517272 -2.5573456879296828
upperback -0.6157328882186173 -0.15046605979562278 0.00934092619696858
thorax -7.563841490568167 0.03284568896034168 3.2471451108876144
lowerneck -17.38400116979734 -3.1974191851588496 -2.79798908296732
upperneck 18.3971287285489 -3.723064749900712 1.850265813612677
head 8.295208824673717 -1.7500461020259999 0.7796894950173971
lclavicle -1.6781711532764168e-15 -3.5939822743143415e-15
lhumerus -41.35950645579282 -6.92824184356394 90.33635912028882
lradius 66.68917401852839
lwrist 19.48852109197522
lhand -31.867862171642606 12.811758612716373
lfingers 7.125019999999999
lthumb -4.8991636778804795 43.47739585803826
rclavicle -1.679949766178722e-15 -3.595236378933695e-15
rhumerus -36.221122604968706 -6.600450868921739 -89.2699592057715
rradius 56.106622065645695
rwrist 1.8074102027678958
rhand -18.684523108782678 27.332262663283878
rfingers 7.125019999999999
rthumb 7.163280686006798 -1.6710285673407796
